<svg xmlns="http://www.w3.org/2000/svg" xmlns:xlink="http://www.w3.org/1999/xlink" width="790" height="320.52"><rect width="790" height="320.52" rx="5" ry="5" class="a"/><svg y="0%" x="0%"><circle cx="20" cy="20" r="6" fill="#ff5f58"/><circle cx="40" cy="20" r="6" fill="#ffbd2e"/><circle cx="60" cy="20" r="6" fill="#18c132"/></svg><svg height="260.52" viewBox="0 0 75 26.052" width="750" x="15" xmlns="http://www.w3.org/2000/svg" xmlns:xlink="http://www.w3.org/1999/xlink" y="50"><style>@keyframes s{0%{transform:translateX(0)}13.7%{transform:translateX(-75px)}13.9%{transform:translateX(-225px)}14%{transform:translateX(-300px)}14.6%{transform:translateX(-375px)}30.6%{transform:translateX(-450px)}30.7%{transform:translateX(-525px)}33.2%{transform:translateX(-600px)}47.5%{transform:translateX(-675px)}56.4%{transform:translateX(-750px)}56.5%{transform:translateX(-825px)}61.5%{transform:translateX(-975px)}61.7%{transform:translateX(-1350px)}61.9%{transform:translateX(-1425px)}62.1%{transform:translateX(-1650px)}to{transform:translateX(-1725px)}}.a{fill:#282d35}.f,.g{white-space:pre}.f{fill:#a8cc8c;font-weight:700}.g{fill:#66c2cd}.g,.h,.i{font-weight:700}.h{fill:#71bef2;white-space:pre}.i{fill:#e88388}.i,.j,.k{white-space:pre}.j{fill:#dbab79;font-weight:700}.k{fill:#a8cc8c}.m{fill:#66c2cd}.m,.n,.o,.p,.q{white-space:pre}.n{fill:#b9c0cb;font-weight:700}.o,.p,.q{fill:#71bef2}.p,.q{fill:#dbab79}.q{fill:#6f7783}</style><g font-family="Monaco,Consolas,Menlo,'Bitstream Vera Sans Mono','Powerline Symbols',monospace" font-size="1.67"><defs><symbol id="1"><text y="1.67" class="f">➜</text><text x="3.006" y="1.67" class="g">filesize</text></symbol><symbol id="2"><text y="1.67" class="f">➜</text><text x="3.006" y="1.67" class="g">filesize</text><text x="12.024" y="1.67" class="h">git:(</text><text x="17.034" y="1.67" class="i">main</text><text x="21.042" y="1.67" class="h">)</text><text x="23.046" y="1.67" class="j">✗</text></symbol><symbol id="3"><text y="1.67" class="f">➜</text><text x="3.006" y="1.67" class="g">filesize</text><text x="12.024" y="1.67" class="h">git:(</text><text x="17.034" y="1.67" class="i">main</text><text x="21.042" y="1.67" class="h">)</text><text x="23.046" y="1.67" class="j">✗</text><text x="25.05" y="1.67" class="k">filesize</text><text x="34.068" y="1.67" style="white-space:pre" fill="#b9c0cb" text-decoration="underline">playground/demo</text></symbol><symbol id="4"><text y="1.67" class="m">Analyze</text><text x="8.016" y="1.67" class="m">path:</text><text x="14.028" y="1.67" class="m">playground/demo</text></symbol><symbol id="5"><text y="1.67" class="m">Using</text><text x="6.012" y="1.67" class="m">pattern:</text><text x="15.03" y="1.67" class="m">playground/demo/**/*.@(js|mjs|cjs)</text></symbol><symbol id="6"><text y="1.67" class="n">📦</text><text x="3.006" y="1.67" class="n">File</text><text x="8.016" y="1.67" class="n">size</text><text x="13.026" y="1.67" class="n">analysis</text><text x="22.044" y="1.67" class="n">report:</text></symbol><symbol id="7"><text y="1.67" class="o">playground/demo/react.development.min.js</text><text x="51.102" y="1.67" class="p">22.74</text><text x="57.114" y="1.67" class="p">kB</text><text x="67.134" y="1.67" class="k">(gzip:</text><text x="74.148" y="1.67" class="k">8</text></symbol><symbol id="8"><text y="1.67" class="k">.16</text><text x="4.008" y="1.67" class="k">kB)</text><text x="8.016" y="1.67" class="q">70.6%</text></symbol><symbol id="9"><text y="1.67" class="o">playground/demo/react.production.min.js</text><text x="51.102" y="1.67" class="p">9.48</text><text x="56.112" y="1.67" class="p">kB</text><text x="67.134" y="1.67" class="k">(gzip:</text><text x="74.148" y="1.67" class="k">3</text></symbol><symbol id="10"><text y="1.67" class="k">.07</text><text x="4.008" y="1.67" class="k">kB)</text><text x="8.016" y="1.67" class="q">29.4%</text></symbol><symbol id="11"><text y="1.67" class="n">Total:</text></symbol><symbol id="12"><text y="1.67" class="p">Raw:</text><text x="5.01" y="1.67" class="p">32.22</text><text x="11.022" y="1.67" class="p">kB</text></symbol><symbol id="13"><text y="1.67" class="k">Gzip:</text><text x="6.012" y="1.67" class="k">11.23</text><text x="12.024" y="1.67" class="k">kB</text></symbol><symbol id="a"><path fill="transparent" d="M0 0h75v13H0z"/></symbol></defs><path class="a" d="M0 0h75v26.052H0z"/><g style="animation-duration:5.380745s;animation-iteration-count:infinite;animation-name:s;animation-timing-function:steps(1,end)"><svg width="1800"><svg><use xlink:href="#a"/></svg><svg x="75"><use xlink:href="#a"/></svg><svg x="150"><use xlink:href="#a"/><use xlink:href="#1"/></svg><svg x="225"><use xlink:href="#a"/><use xlink:href="#1"/></svg><svg x="300"><use xlink:href="#a"/><use xlink:href="#1"/></svg><svg x="375"><use xlink:href="#a"/><use xlink:href="#2"/></svg><svg x="450"><use xlink:href="#a"/><text y="1.67" class="f">➜</text><text x="3.006" y="1.67" class="g">filesize</text><text x="12.024" y="1.67" class="h">git:(</text><text x="17.034" y="1.67" class="i">main</text><text x="21.042" y="1.67" class="h">)</text><text x="23.046" y="1.67" class="j">✗</text><text x="25.05" y="1.67" class="i">f</text></svg><svg x="525"><use xlink:href="#a"/><text y="1.67" class="f">➜</text><text x="3.006" y="1.67" class="g">filesize</text><text x="12.024" y="1.67" class="h">git:(</text><text x="17.034" y="1.67" class="i">main</text><text x="21.042" y="1.67" class="h">)</text><text x="23.046" y="1.67" class="j">✗</text><text x="25.05" y="1.67" class="i">f</text><text x="26.052" y="1.67" class="q">ilesize</text><text x="34.068" y="1.67" class="q">playground/demo</text></svg><svg x="600"><use xlink:href="#a"/><text y="1.67" class="f">➜</text><text x="3.006" y="1.67" class="g">filesize</text><text x="12.024" y="1.67" class="h">git:(</text><text x="17.034" y="1.67" class="i">main</text><text x="21.042" y="1.67" class="h">)</text><text x="23.046" y="1.67" class="j">✗</text><text x="25.05" y="1.67" class="i">fi</text><text x="27.054" y="1.67" class="q">lesize</text><text x="34.068" y="1.67" class="q">playground/demo</text></svg><svg x="675"><use xlink:href="#a"/><use xlink:href="#3"/></svg><svg x="750"><use xlink:href="#a"/><use xlink:href="#3"/></svg><svg x="825"><use xlink:href="#a"/><use xlink:href="#3"/></svg><svg x="900"><use xlink:href="#a"/><use xlink:href="#3"/><use xlink:href="#4" y="2.171"/></svg><svg x="975"><use xlink:href="#a"/><use xlink:href="#3"/><use xlink:href="#4" y="2.171"/><use xlink:href="#5" y="4.342"/></svg><svg x="1050"><use xlink:href="#a"/><use xlink:href="#3"/><use xlink:href="#4" y="2.171"/><use xlink:href="#5" y="4.342"/><use xlink:href="#6" y="8.684"/></svg><svg x="1125"><use xlink:href="#a"/><use xlink:href="#3"/><use xlink:href="#4" y="2.171"/><use xlink:href="#5" y="4.342"/><use xlink:href="#6" y="8.684"/><use xlink:href="#7" y="13.026"/><use xlink:href="#8" y="15.197"/></svg><svg x="1200"><use xlink:href="#a"/><use xlink:href="#3"/><use xlink:href="#4" y="2.171"/><use xlink:href="#5" y="4.342"/><use xlink:href="#6" y="8.684"/><use xlink:href="#7" y="13.026"/><use xlink:href="#8" y="15.197"/><use xlink:href="#9" y="17.368"/><use xlink:href="#10" y="19.539"/></svg><svg x="1275"><use xlink:href="#a"/><use xlink:href="#4"/><use xlink:href="#5" y="2.171"/><use xlink:href="#6" y="6.513"/><use xlink:href="#7" y="10.855"/><use xlink:href="#8" y="13.026"/><use xlink:href="#9" y="15.197"/><use xlink:href="#10" y="17.368"/><use xlink:href="#11" y="21.71"/><use xlink:href="#12" y="23.881"/></svg><svg x="1350"><use xlink:href="#a"/><use xlink:href="#5"/><use xlink:href="#6" y="4.342"/><use xlink:href="#7" y="8.684"/><use xlink:href="#8" y="10.855"/><use xlink:href="#9" y="13.026"/><use xlink:href="#10" y="15.197"/><use xlink:href="#11" y="19.539"/><use xlink:href="#12" y="21.71"/><use xlink:href="#13" y="23.881"/></svg><svg x="1425"><use xlink:href="#a"/><use xlink:href="#5"/><use xlink:href="#6" y="4.342"/><use xlink:href="#7" y="8.684"/><use xlink:href="#8" y="10.855"/><use xlink:href="#9" y="13.026"/><use xlink:href="#10" y="15.197"/><use xlink:href="#11" y="19.539"/><use xlink:href="#12" y="21.71"/><use xlink:href="#13" y="23.881"/></svg><svg x="1500"><use xlink:href="#a"/><use xlink:href="#5"/><use xlink:href="#6" y="4.342"/><use xlink:href="#7" y="8.684"/><use xlink:href="#8" y="10.855"/><use xlink:href="#9" y="13.026"/><use xlink:href="#10" y="15.197"/><use xlink:href="#11" y="19.539"/><use xlink:href="#12" y="21.71"/><use xlink:href="#13" y="23.881"/><use xlink:href="#2" y="26.052"/></svg><svg x="1575"><use xlink:href="#a"/><use xlink:href="#5"/><use xlink:href="#6" y="4.342"/><use xlink:href="#7" y="8.684"/><use xlink:href="#8" y="10.855"/><use xlink:href="#9" y="13.026"/><use xlink:href="#10" y="15.197"/><use xlink:href="#11" y="19.539"/><use xlink:href="#12" y="21.71"/><use xlink:href="#13" y="23.881"/><use xlink:href="#2" y="26.052"/></svg><svg x="1650"><use xlink:href="#a"/><use xlink:href="#5"/><use xlink:href="#6" y="4.342"/><use xlink:href="#7" y="8.684"/><use xlink:href="#8" y="10.855"/><use xlink:href="#9" y="13.026"/><use xlink:href="#10" y="15.197"/><use xlink:href="#11" y="19.539"/><use xlink:href="#12" y="21.71"/><use xlink:href="#13" y="23.881"/><use xlink:href="#2" y="26.052"/></svg><svg x="1725"><use xlink:href="#a"/><use xlink:href="#6" y="2.171"/><use xlink:href="#7" y="6.513"/><use xlink:href="#8" y="8.684"/><use xlink:href="#9" y="10.855"/><use xlink:href="#10" y="13.026"/><use xlink:href="#11" y="17.368"/><use xlink:href="#12" y="19.539"/><use xlink:href="#13" y="21.71"/><use xlink:href="#2" y="23.881"/></svg></svg></g></g></svg></svg>